<mxfile host="app.diagrams.net" agent="Mozilla/5.0 (Macintosh; Intel Mac OS X 10.15; rv:131.0) Gecko/20100101 Firefox/131.0" version="24.7.17">
  <diagram name="Page-1" id="-49FwKqJxtAC1uJm1ZOL">
    <mxGraphModel dx="2231" dy="746" grid="1" gridSize="10" guides="1" tooltips="1" connect="1" arrows="1" fold="1" page="1" pageScale="1" pageWidth="1100" pageHeight="850" math="0" shadow="0">
      <root>
        <mxCell id="0" />
        <mxCell id="1" parent="0" />
        <mxCell id="FP0iiqA9R1l6mgRTC4EI-1" value="" style="group" connectable="0" vertex="1" parent="1">
          <mxGeometry x="30" y="330" width="80" height="30" as="geometry" />
        </mxCell>
        <mxCell id="FP0iiqA9R1l6mgRTC4EI-2" value="" style="rounded=0;whiteSpace=wrap;html=1;" vertex="1" parent="FP0iiqA9R1l6mgRTC4EI-1">
          <mxGeometry width="80" height="27.5" as="geometry" />
        </mxCell>
        <mxCell id="FP0iiqA9R1l6mgRTC4EI-3" value="&lt;div&gt;Organizer&lt;/div&gt;" style="text;html=1;align=center;verticalAlign=middle;whiteSpace=wrap;rounded=0;" vertex="1" parent="FP0iiqA9R1l6mgRTC4EI-1">
          <mxGeometry x="10" width="60" height="30" as="geometry" />
        </mxCell>
        <mxCell id="FP0iiqA9R1l6mgRTC4EI-4" value="" style="group" connectable="0" vertex="1" parent="1">
          <mxGeometry x="485" y="590.5" width="80" height="30" as="geometry" />
        </mxCell>
        <mxCell id="FP0iiqA9R1l6mgRTC4EI-5" value="" style="rounded=0;whiteSpace=wrap;html=1;" vertex="1" parent="FP0iiqA9R1l6mgRTC4EI-4">
          <mxGeometry width="80" height="27.5" as="geometry" />
        </mxCell>
        <mxCell id="FP0iiqA9R1l6mgRTC4EI-6" value="&lt;div&gt;Participant&lt;/div&gt;" style="text;html=1;align=center;verticalAlign=middle;whiteSpace=wrap;rounded=0;" vertex="1" parent="FP0iiqA9R1l6mgRTC4EI-4">
          <mxGeometry x="10" width="60" height="30" as="geometry" />
        </mxCell>
        <mxCell id="FP0iiqA9R1l6mgRTC4EI-7" value="&lt;font style=&quot;font-size: 10px;&quot;&gt;Profile created/updated confirmation&lt;/font&gt;" style="text;html=1;align=center;verticalAlign=middle;whiteSpace=wrap;rounded=0;" vertex="1" parent="1">
          <mxGeometry x="530" y="515.5" width="80" height="30" as="geometry" />
        </mxCell>
        <mxCell id="FP0iiqA9R1l6mgRTC4EI-8" value="&lt;div&gt;User Details&lt;/div&gt;" style="text;html=1;align=center;verticalAlign=middle;whiteSpace=wrap;rounded=0;" vertex="1" parent="1">
          <mxGeometry x="440" y="515.5" width="60" height="30" as="geometry" />
        </mxCell>
        <mxCell id="FP0iiqA9R1l6mgRTC4EI-9" value="" style="endArrow=classic;html=1;rounded=0;exitX=0.5;exitY=0;exitDx=0;exitDy=0;" edge="1" parent="1">
          <mxGeometry width="50" height="50" relative="1" as="geometry">
            <mxPoint x="510" y="590.5" as="sourcePoint" />
            <mxPoint x="510" y="460.5" as="targetPoint" />
          </mxGeometry>
        </mxCell>
        <mxCell id="FP0iiqA9R1l6mgRTC4EI-10" value="" style="endArrow=classic;html=1;rounded=0;" edge="1" parent="1">
          <mxGeometry width="50" height="50" relative="1" as="geometry">
            <mxPoint x="110" y="340" as="sourcePoint" />
            <mxPoint x="290" y="340" as="targetPoint" />
          </mxGeometry>
        </mxCell>
        <mxCell id="FP0iiqA9R1l6mgRTC4EI-11" value="Event Details" style="text;html=1;align=center;verticalAlign=middle;whiteSpace=wrap;rounded=0;" vertex="1" parent="1">
          <mxGeometry x="160" y="300" width="90" height="30" as="geometry" />
        </mxCell>
        <mxCell id="FP0iiqA9R1l6mgRTC4EI-12" value="" style="endArrow=classic;html=1;rounded=0;exitX=0.023;exitY=0.567;exitDx=0;exitDy=0;exitPerimeter=0;" edge="1" parent="1" source="FP0iiqA9R1l6mgRTC4EI-30">
          <mxGeometry width="50" height="50" relative="1" as="geometry">
            <mxPoint x="190" y="350" as="sourcePoint" />
            <mxPoint x="110" y="350" as="targetPoint" />
          </mxGeometry>
        </mxCell>
        <mxCell id="FP0iiqA9R1l6mgRTC4EI-13" value="Event Confirmation" style="text;html=1;align=center;verticalAlign=middle;whiteSpace=wrap;rounded=0;" vertex="1" parent="1">
          <mxGeometry x="160" y="360" width="90" height="30" as="geometry" />
        </mxCell>
        <mxCell id="FP0iiqA9R1l6mgRTC4EI-14" value="" style="endArrow=classic;html=1;rounded=0;exitX=0.5;exitY=1;exitDx=0;exitDy=0;entryX=0.5;entryY=0;entryDx=0;entryDy=0;" edge="1" parent="1" target="FP0iiqA9R1l6mgRTC4EI-6">
          <mxGeometry width="50" height="50" relative="1" as="geometry">
            <mxPoint x="525" y="460.5" as="sourcePoint" />
            <mxPoint x="580" y="480.5" as="targetPoint" />
          </mxGeometry>
        </mxCell>
        <mxCell id="FP0iiqA9R1l6mgRTC4EI-15" value="" style="endArrow=none;html=1;rounded=0;" edge="1" parent="1">
          <mxGeometry width="50" height="50" relative="1" as="geometry">
            <mxPoint x="565" y="600.5" as="sourcePoint" />
            <mxPoint x="710" y="600.5" as="targetPoint" />
          </mxGeometry>
        </mxCell>
        <mxCell id="FP0iiqA9R1l6mgRTC4EI-16" value="" style="endArrow=none;html=1;rounded=0;" edge="1" parent="1">
          <mxGeometry width="50" height="50" relative="1" as="geometry">
            <mxPoint x="710" y="600.5" as="sourcePoint" />
            <mxPoint x="710" y="430.5" as="targetPoint" />
          </mxGeometry>
        </mxCell>
        <mxCell id="FP0iiqA9R1l6mgRTC4EI-17" value="" style="endArrow=classic;html=1;rounded=0;" edge="1" parent="1">
          <mxGeometry width="50" height="50" relative="1" as="geometry">
            <mxPoint x="710" y="430.5" as="sourcePoint" />
            <mxPoint x="680" y="430" as="targetPoint" />
          </mxGeometry>
        </mxCell>
        <mxCell id="FP0iiqA9R1l6mgRTC4EI-18" value="Event Registration Details" style="text;html=1;align=center;verticalAlign=middle;whiteSpace=wrap;rounded=0;" vertex="1" parent="1">
          <mxGeometry x="640" y="485.5" width="60" height="30" as="geometry" />
        </mxCell>
        <mxCell id="FP0iiqA9R1l6mgRTC4EI-19" value="" style="group" connectable="0" vertex="1" parent="1">
          <mxGeometry x="760" y="420" height="190.5" as="geometry" />
        </mxCell>
        <mxCell id="FP0iiqA9R1l6mgRTC4EI-20" value="" style="endArrow=none;html=1;rounded=0;exitX=1;exitY=0.5;exitDx=0;exitDy=0;" edge="1" parent="FP0iiqA9R1l6mgRTC4EI-19" source="FP0iiqA9R1l6mgRTC4EI-52">
          <mxGeometry width="50" height="50" relative="1" as="geometry">
            <mxPoint x="-30" y="0.47625" as="sourcePoint" />
            <mxPoint as="targetPoint" />
          </mxGeometry>
        </mxCell>
        <mxCell id="FP0iiqA9R1l6mgRTC4EI-21" value="" style="endArrow=none;html=1;rounded=0;" edge="1" parent="FP0iiqA9R1l6mgRTC4EI-19">
          <mxGeometry width="50" height="50" relative="1" as="geometry">
            <mxPoint as="sourcePoint" />
            <mxPoint y="190.5" as="targetPoint" />
          </mxGeometry>
        </mxCell>
        <mxCell id="FP0iiqA9R1l6mgRTC4EI-22" value="" style="endArrow=classic;html=1;rounded=0;entryX=1;entryY=0.75;entryDx=0;entryDy=0;" edge="1" parent="FP0iiqA9R1l6mgRTC4EI-19" target="FP0iiqA9R1l6mgRTC4EI-5">
          <mxGeometry width="50" height="50" relative="1" as="geometry">
            <mxPoint y="190.5" as="sourcePoint" />
            <mxPoint x="50" y="142.875" as="targetPoint" />
          </mxGeometry>
        </mxCell>
        <mxCell id="FP0iiqA9R1l6mgRTC4EI-23" value="&lt;div&gt;Registration Confirmation&lt;/div&gt;&lt;div&gt;&lt;br&gt;&lt;/div&gt;" style="text;html=1;align=center;verticalAlign=middle;whiteSpace=wrap;rounded=0;" vertex="1" parent="1">
          <mxGeometry x="630" y="620.5" width="60" height="30" as="geometry" />
        </mxCell>
        <mxCell id="FP0iiqA9R1l6mgRTC4EI-24" value="" style="endArrow=none;html=1;rounded=0;exitX=0.92;exitY=0.248;exitDx=0;exitDy=0;exitPerimeter=0;" edge="1" parent="1" source="FP0iiqA9R1l6mgRTC4EI-52">
          <mxGeometry width="50" height="50" relative="1" as="geometry">
            <mxPoint x="720" y="400" as="sourcePoint" />
            <mxPoint x="790" y="400" as="targetPoint" />
          </mxGeometry>
        </mxCell>
        <mxCell id="FP0iiqA9R1l6mgRTC4EI-25" value="" style="endArrow=none;html=1;rounded=0;" edge="1" parent="1">
          <mxGeometry width="50" height="50" relative="1" as="geometry">
            <mxPoint x="790" y="690.5" as="sourcePoint" />
            <mxPoint x="790" y="400.5" as="targetPoint" />
          </mxGeometry>
        </mxCell>
        <mxCell id="FP0iiqA9R1l6mgRTC4EI-26" value="" style="endArrow=none;html=1;rounded=0;" edge="1" parent="1">
          <mxGeometry width="50" height="50" relative="1" as="geometry">
            <mxPoint x="560" y="690.5" as="sourcePoint" />
            <mxPoint x="790" y="690.5" as="targetPoint" />
          </mxGeometry>
        </mxCell>
        <mxCell id="FP0iiqA9R1l6mgRTC4EI-27" value="" style="endArrow=classic;html=1;rounded=0;" edge="1" parent="1">
          <mxGeometry width="50" height="50" relative="1" as="geometry">
            <mxPoint x="560" y="690.5" as="sourcePoint" />
            <mxPoint x="560" y="618.5" as="targetPoint" />
          </mxGeometry>
        </mxCell>
        <mxCell id="FP0iiqA9R1l6mgRTC4EI-28" value="event participation details" style="text;html=1;align=center;verticalAlign=middle;whiteSpace=wrap;rounded=0;" vertex="1" parent="1">
          <mxGeometry x="607.5" y="700.5" width="180" height="30" as="geometry" />
        </mxCell>
        <mxCell id="FP0iiqA9R1l6mgRTC4EI-29" value="" style="group" connectable="0" vertex="1" parent="1">
          <mxGeometry x="290" y="305" width="80" height="80" as="geometry" />
        </mxCell>
        <mxCell id="FP0iiqA9R1l6mgRTC4EI-30" value="Event Creation" style="ellipse;whiteSpace=wrap;html=1;aspect=fixed;" vertex="1" parent="FP0iiqA9R1l6mgRTC4EI-29">
          <mxGeometry width="80" height="80" as="geometry" />
        </mxCell>
        <mxCell id="FP0iiqA9R1l6mgRTC4EI-31" value="" style="endArrow=none;html=1;rounded=0;exitX=0.109;exitY=0.185;exitDx=0;exitDy=0;exitPerimeter=0;entryX=0.894;entryY=0.188;entryDx=0;entryDy=0;entryPerimeter=0;" edge="1" parent="FP0iiqA9R1l6mgRTC4EI-29" source="FP0iiqA9R1l6mgRTC4EI-30" target="FP0iiqA9R1l6mgRTC4EI-30">
          <mxGeometry width="50" height="50" relative="1" as="geometry">
            <mxPoint x="10" y="15" as="sourcePoint" />
            <mxPoint x="70" y="15" as="targetPoint" />
          </mxGeometry>
        </mxCell>
        <mxCell id="FP0iiqA9R1l6mgRTC4EI-32" value="" style="endArrow=none;html=1;rounded=0;entryX=0.5;entryY=1;entryDx=0;entryDy=0;" edge="1" parent="1" target="FP0iiqA9R1l6mgRTC4EI-30">
          <mxGeometry width="50" height="50" relative="1" as="geometry">
            <mxPoint x="330" y="560" as="sourcePoint" />
            <mxPoint x="330" y="390" as="targetPoint" />
          </mxGeometry>
        </mxCell>
        <mxCell id="FP0iiqA9R1l6mgRTC4EI-33" value="" style="endArrow=none;html=1;rounded=0;" edge="1" parent="1">
          <mxGeometry width="50" height="50" relative="1" as="geometry">
            <mxPoint x="230" y="560" as="sourcePoint" />
            <mxPoint x="330" y="560" as="targetPoint" />
          </mxGeometry>
        </mxCell>
        <mxCell id="FP0iiqA9R1l6mgRTC4EI-34" value="" style="endArrow=classic;html=1;rounded=0;entryX=0.837;entryY=0.013;entryDx=0;entryDy=0;entryPerimeter=0;" edge="1" parent="1" target="FP0iiqA9R1l6mgRTC4EI-42">
          <mxGeometry width="50" height="50" relative="1" as="geometry">
            <mxPoint x="230" y="560" as="sourcePoint" />
            <mxPoint x="280" y="510" as="targetPoint" />
          </mxGeometry>
        </mxCell>
        <mxCell id="FP0iiqA9R1l6mgRTC4EI-35" value="Event Details" style="text;html=1;align=center;verticalAlign=middle;whiteSpace=wrap;rounded=0;" vertex="1" parent="1">
          <mxGeometry x="230" y="440" width="90" height="30" as="geometry" />
        </mxCell>
        <mxCell id="FP0iiqA9R1l6mgRTC4EI-36" value="" style="group" connectable="0" vertex="1" parent="1">
          <mxGeometry x="480" y="380" width="80" height="80" as="geometry" />
        </mxCell>
        <mxCell id="FP0iiqA9R1l6mgRTC4EI-37" value="User Profile Management" style="ellipse;whiteSpace=wrap;html=1;aspect=fixed;" vertex="1" parent="FP0iiqA9R1l6mgRTC4EI-36">
          <mxGeometry width="80" height="80" as="geometry" />
        </mxCell>
        <mxCell id="FP0iiqA9R1l6mgRTC4EI-38" value="" style="endArrow=none;html=1;rounded=0;exitX=0.109;exitY=0.185;exitDx=0;exitDy=0;exitPerimeter=0;entryX=0.894;entryY=0.188;entryDx=0;entryDy=0;entryPerimeter=0;" edge="1" parent="FP0iiqA9R1l6mgRTC4EI-36" source="FP0iiqA9R1l6mgRTC4EI-37" target="FP0iiqA9R1l6mgRTC4EI-37">
          <mxGeometry width="50" height="50" relative="1" as="geometry">
            <mxPoint x="10" y="15" as="sourcePoint" />
            <mxPoint x="70" y="15" as="targetPoint" />
          </mxGeometry>
        </mxCell>
        <mxCell id="FP0iiqA9R1l6mgRTC4EI-39" value="" style="group" connectable="0" vertex="1" parent="1">
          <mxGeometry x="160" y="590" width="100" height="30" as="geometry" />
        </mxCell>
        <mxCell id="FP0iiqA9R1l6mgRTC4EI-40" value="" style="endArrow=none;html=1;rounded=0;" edge="1" parent="FP0iiqA9R1l6mgRTC4EI-39">
          <mxGeometry width="50" height="50" relative="1" as="geometry">
            <mxPoint as="sourcePoint" />
            <mxPoint x="100" as="targetPoint" />
          </mxGeometry>
        </mxCell>
        <mxCell id="FP0iiqA9R1l6mgRTC4EI-41" value="" style="endArrow=none;html=1;rounded=0;" edge="1" parent="FP0iiqA9R1l6mgRTC4EI-39">
          <mxGeometry width="50" height="50" relative="1" as="geometry">
            <mxPoint y="30" as="sourcePoint" />
            <mxPoint x="100" y="30" as="targetPoint" />
          </mxGeometry>
        </mxCell>
        <mxCell id="FP0iiqA9R1l6mgRTC4EI-42" value="Events" style="text;html=1;align=center;verticalAlign=middle;resizable=0;points=[];autosize=1;strokeColor=none;fillColor=none;" vertex="1" parent="FP0iiqA9R1l6mgRTC4EI-39">
          <mxGeometry x="20" width="60" height="30" as="geometry" />
        </mxCell>
        <mxCell id="FP0iiqA9R1l6mgRTC4EI-43" value="" style="group" connectable="0" vertex="1" parent="1">
          <mxGeometry x="270" y="130" width="100" height="30" as="geometry" />
        </mxCell>
        <mxCell id="FP0iiqA9R1l6mgRTC4EI-44" value="" style="endArrow=none;html=1;rounded=0;" edge="1" parent="FP0iiqA9R1l6mgRTC4EI-43">
          <mxGeometry width="50" height="50" relative="1" as="geometry">
            <mxPoint as="sourcePoint" />
            <mxPoint x="100" as="targetPoint" />
          </mxGeometry>
        </mxCell>
        <mxCell id="FP0iiqA9R1l6mgRTC4EI-45" value="" style="endArrow=none;html=1;rounded=0;" edge="1" parent="FP0iiqA9R1l6mgRTC4EI-43">
          <mxGeometry width="50" height="50" relative="1" as="geometry">
            <mxPoint y="30" as="sourcePoint" />
            <mxPoint x="100" y="30" as="targetPoint" />
          </mxGeometry>
        </mxCell>
        <mxCell id="FP0iiqA9R1l6mgRTC4EI-46" value="Users" style="text;html=1;align=center;verticalAlign=middle;resizable=0;points=[];autosize=1;strokeColor=none;fillColor=none;" vertex="1" parent="FP0iiqA9R1l6mgRTC4EI-43">
          <mxGeometry x="25" width="50" height="30" as="geometry" />
        </mxCell>
        <mxCell id="FP0iiqA9R1l6mgRTC4EI-47" value="" style="endArrow=classic;html=1;rounded=0;entryX=0.469;entryY=0.995;entryDx=0;entryDy=0;entryPerimeter=0;" edge="1" parent="1" target="FP0iiqA9R1l6mgRTC4EI-46">
          <mxGeometry width="50" height="50" relative="1" as="geometry">
            <mxPoint x="320" y="270" as="sourcePoint" />
            <mxPoint x="350" y="170" as="targetPoint" />
          </mxGeometry>
        </mxCell>
        <mxCell id="FP0iiqA9R1l6mgRTC4EI-48" value="" style="endArrow=none;html=1;rounded=0;" edge="1" parent="1">
          <mxGeometry width="50" height="50" relative="1" as="geometry">
            <mxPoint x="320" y="270" as="sourcePoint" />
            <mxPoint x="500" y="270" as="targetPoint" />
          </mxGeometry>
        </mxCell>
        <mxCell id="FP0iiqA9R1l6mgRTC4EI-49" value="" style="endArrow=none;html=1;rounded=0;exitX=0.253;exitY=0.077;exitDx=0;exitDy=0;exitPerimeter=0;" edge="1" parent="1" source="FP0iiqA9R1l6mgRTC4EI-37">
          <mxGeometry width="50" height="50" relative="1" as="geometry">
            <mxPoint x="460" y="350" as="sourcePoint" />
            <mxPoint x="500" y="270" as="targetPoint" />
          </mxGeometry>
        </mxCell>
        <mxCell id="FP0iiqA9R1l6mgRTC4EI-50" value="&lt;div&gt;User Details&lt;/div&gt;" style="text;html=1;align=center;verticalAlign=middle;whiteSpace=wrap;rounded=0;" vertex="1" parent="1">
          <mxGeometry x="420" y="290" width="60" height="30" as="geometry" />
        </mxCell>
        <mxCell id="FP0iiqA9R1l6mgRTC4EI-51" value="" style="group" connectable="0" vertex="1" parent="1">
          <mxGeometry x="600" y="380" width="80" height="80" as="geometry" />
        </mxCell>
        <mxCell id="FP0iiqA9R1l6mgRTC4EI-52" value="Event Registration" style="ellipse;whiteSpace=wrap;html=1;aspect=fixed;" vertex="1" parent="FP0iiqA9R1l6mgRTC4EI-51">
          <mxGeometry width="80" height="80" as="geometry" />
        </mxCell>
        <mxCell id="FP0iiqA9R1l6mgRTC4EI-53" value="" style="endArrow=none;html=1;rounded=0;exitX=0.109;exitY=0.185;exitDx=0;exitDy=0;exitPerimeter=0;entryX=0.894;entryY=0.188;entryDx=0;entryDy=0;entryPerimeter=0;" edge="1" parent="FP0iiqA9R1l6mgRTC4EI-51" source="FP0iiqA9R1l6mgRTC4EI-52" target="FP0iiqA9R1l6mgRTC4EI-52">
          <mxGeometry width="50" height="50" relative="1" as="geometry">
            <mxPoint x="10" y="15" as="sourcePoint" />
            <mxPoint x="70" y="15" as="targetPoint" />
          </mxGeometry>
        </mxCell>
        <mxCell id="FP0iiqA9R1l6mgRTC4EI-54" value="" style="endArrow=none;html=1;rounded=0;" edge="1" parent="1">
          <mxGeometry width="50" height="50" relative="1" as="geometry">
            <mxPoint x="910" y="330" as="sourcePoint" />
            <mxPoint x="640" y="330" as="targetPoint" />
          </mxGeometry>
        </mxCell>
        <mxCell id="FP0iiqA9R1l6mgRTC4EI-55" value="" style="endArrow=none;html=1;rounded=0;" edge="1" parent="1">
          <mxGeometry width="50" height="50" relative="1" as="geometry">
            <mxPoint x="640" y="380" as="sourcePoint" />
            <mxPoint x="640" y="330" as="targetPoint" />
          </mxGeometry>
        </mxCell>
        <mxCell id="FP0iiqA9R1l6mgRTC4EI-56" value="" style="endArrow=classic;html=1;rounded=0;" edge="1" parent="1">
          <mxGeometry width="50" height="50" relative="1" as="geometry">
            <mxPoint x="910" y="330" as="sourcePoint" />
            <mxPoint x="910" y="270" as="targetPoint" />
          </mxGeometry>
        </mxCell>
        <mxCell id="FP0iiqA9R1l6mgRTC4EI-57" value="" style="group" connectable="0" vertex="1" parent="1">
          <mxGeometry x="829.996923076923" y="240" width="170.00307692307695" height="30" as="geometry" />
        </mxCell>
        <mxCell id="FP0iiqA9R1l6mgRTC4EI-58" value="" style="endArrow=none;html=1;rounded=0;" edge="1" parent="FP0iiqA9R1l6mgRTC4EI-57">
          <mxGeometry width="50" height="50" relative="1" as="geometry">
            <mxPoint x="0.003076923076946514" as="sourcePoint" />
            <mxPoint x="170.00307692307695" as="targetPoint" />
          </mxGeometry>
        </mxCell>
        <mxCell id="FP0iiqA9R1l6mgRTC4EI-59" value="" style="endArrow=none;html=1;rounded=0;" edge="1" parent="FP0iiqA9R1l6mgRTC4EI-57">
          <mxGeometry width="50" height="50" relative="1" as="geometry">
            <mxPoint x="0.003076923076946514" y="30" as="sourcePoint" />
            <mxPoint x="170.00307692307695" y="30" as="targetPoint" />
          </mxGeometry>
        </mxCell>
        <mxCell id="FP0iiqA9R1l6mgRTC4EI-60" value="Registered Event Details" style="text;html=1;align=center;verticalAlign=middle;resizable=0;points=[];autosize=1;strokeColor=none;fillColor=none;" vertex="1" parent="FP0iiqA9R1l6mgRTC4EI-57">
          <mxGeometry width="160" height="30" as="geometry" />
        </mxCell>
        <mxCell id="FP0iiqA9R1l6mgRTC4EI-61" value="" style="group" connectable="0" vertex="1" parent="1">
          <mxGeometry x="562.5" y="30" width="80" height="30" as="geometry" />
        </mxCell>
        <mxCell id="FP0iiqA9R1l6mgRTC4EI-62" value="" style="rounded=0;whiteSpace=wrap;html=1;" vertex="1" parent="FP0iiqA9R1l6mgRTC4EI-61">
          <mxGeometry width="80" height="27.5" as="geometry" />
        </mxCell>
        <mxCell id="FP0iiqA9R1l6mgRTC4EI-63" value="&lt;div&gt;Admin&lt;/div&gt;" style="text;html=1;align=center;verticalAlign=middle;whiteSpace=wrap;rounded=0;" vertex="1" parent="FP0iiqA9R1l6mgRTC4EI-61">
          <mxGeometry x="10" width="60" height="30" as="geometry" />
        </mxCell>
        <mxCell id="FP0iiqA9R1l6mgRTC4EI-64" value="&lt;font style=&quot;font-size: 10px;&quot;&gt;&lt;span lang=&quot;EN&quot; style=&quot;line-height: 115%;&quot;&gt;Reporting parameters &lt;/span&gt;&lt;/font&gt;" style="text;whiteSpace=wrap;html=1;" vertex="1" parent="1">
          <mxGeometry x="497.5" y="80" width="110" height="30" as="geometry" />
        </mxCell>
        <mxCell id="FP0iiqA9R1l6mgRTC4EI-65" value="&lt;font style=&quot;font-size: 10px;&quot;&gt;&lt;span lang=&quot;EN&quot; style=&quot;line-height: 115%;&quot;&gt;feedback summaries&lt;/span&gt;&lt;/font&gt;" style="text;whiteSpace=wrap;html=1;" vertex="1" parent="1">
          <mxGeometry x="632.5" y="70" width="70" height="50" as="geometry" />
        </mxCell>
        <mxCell id="FP0iiqA9R1l6mgRTC4EI-66" value="" style="endArrow=classic;html=1;rounded=0;exitX=0.531;exitY=0.932;exitDx=0;exitDy=0;exitPerimeter=0;entryX=0.423;entryY=0.015;entryDx=0;entryDy=0;entryPerimeter=0;" edge="1" parent="1" source="FP0iiqA9R1l6mgRTC4EI-63" target="FP0iiqA9R1l6mgRTC4EI-74">
          <mxGeometry width="50" height="50" relative="1" as="geometry">
            <mxPoint x="642.5" y="90" as="sourcePoint" />
            <mxPoint x="603.5" y="130" as="targetPoint" />
          </mxGeometry>
        </mxCell>
        <mxCell id="FP0iiqA9R1l6mgRTC4EI-67" value="" style="endArrow=classic;html=1;rounded=0;entryX=0.84;entryY=0.918;entryDx=0;entryDy=0;entryPerimeter=0;exitX=0.667;exitY=0.045;exitDx=0;exitDy=0;exitPerimeter=0;" edge="1" parent="1" source="FP0iiqA9R1l6mgRTC4EI-74" target="FP0iiqA9R1l6mgRTC4EI-63">
          <mxGeometry width="50" height="50" relative="1" as="geometry">
            <mxPoint x="623.5" y="132" as="sourcePoint" />
            <mxPoint x="622.5" y="60" as="targetPoint" />
          </mxGeometry>
        </mxCell>
        <mxCell id="FP0iiqA9R1l6mgRTC4EI-68" value="&lt;font style=&quot;font-size: 10px;&quot;&gt;&lt;span lang=&quot;EN&quot; style=&quot;line-height: 115%;&quot;&gt;Event participation&lt;br&gt;statistics&lt;/span&gt;&lt;/font&gt;" style="text;whiteSpace=wrap;html=1;" vertex="1" parent="1">
          <mxGeometry x="757.5" y="65" width="85" height="35" as="geometry" />
        </mxCell>
        <mxCell id="FP0iiqA9R1l6mgRTC4EI-69" value="" style="group" connectable="0" vertex="1" parent="1">
          <mxGeometry x="752.5" y="50" height="120" as="geometry" />
        </mxCell>
        <mxCell id="FP0iiqA9R1l6mgRTC4EI-70" value="" style="endArrow=none;html=1;rounded=0;" edge="1" parent="FP0iiqA9R1l6mgRTC4EI-69">
          <mxGeometry width="50" height="50" relative="1" as="geometry">
            <mxPoint y="120" as="sourcePoint" />
            <mxPoint as="targetPoint" />
          </mxGeometry>
        </mxCell>
        <mxCell id="FP0iiqA9R1l6mgRTC4EI-71" value="" style="endArrow=none;html=1;rounded=0;exitX=0.956;exitY=0.263;exitDx=0;exitDy=0;exitPerimeter=0;" edge="1" parent="FP0iiqA9R1l6mgRTC4EI-69" source="FP0iiqA9R1l6mgRTC4EI-74">
          <mxGeometry width="50" height="50" relative="1" as="geometry">
            <mxPoint x="-62.5" y="120" as="sourcePoint" />
            <mxPoint y="120" as="targetPoint" />
          </mxGeometry>
        </mxCell>
        <mxCell id="FP0iiqA9R1l6mgRTC4EI-72" value="" style="endArrow=classic;html=1;rounded=0;entryX=1;entryY=0.75;entryDx=0;entryDy=0;" edge="1" parent="FP0iiqA9R1l6mgRTC4EI-69" target="FP0iiqA9R1l6mgRTC4EI-62">
          <mxGeometry width="50" height="50" relative="1" as="geometry">
            <mxPoint as="sourcePoint" />
            <mxPoint x="50" y="-50" as="targetPoint" />
          </mxGeometry>
        </mxCell>
        <mxCell id="FP0iiqA9R1l6mgRTC4EI-73" value="" style="group" connectable="0" vertex="1" parent="1">
          <mxGeometry x="570" y="150" width="80" height="80" as="geometry" />
        </mxCell>
        <mxCell id="FP0iiqA9R1l6mgRTC4EI-74" value="&lt;font style=&quot;font-size: 11px;&quot;&gt;Report/Feedback Management&lt;/font&gt;" style="ellipse;whiteSpace=wrap;html=1;aspect=fixed;" vertex="1" parent="FP0iiqA9R1l6mgRTC4EI-73">
          <mxGeometry width="80" height="80" as="geometry" />
        </mxCell>
        <mxCell id="FP0iiqA9R1l6mgRTC4EI-75" value="" style="endArrow=none;html=1;rounded=0;exitX=0.109;exitY=0.185;exitDx=0;exitDy=0;exitPerimeter=0;entryX=0.894;entryY=0.188;entryDx=0;entryDy=0;entryPerimeter=0;" edge="1" parent="FP0iiqA9R1l6mgRTC4EI-73" source="FP0iiqA9R1l6mgRTC4EI-74" target="FP0iiqA9R1l6mgRTC4EI-74">
          <mxGeometry width="50" height="50" relative="1" as="geometry">
            <mxPoint x="10" y="15" as="sourcePoint" />
            <mxPoint x="70" y="15" as="targetPoint" />
          </mxGeometry>
        </mxCell>
        <mxCell id="FP0iiqA9R1l6mgRTC4EI-76" value="" style="endArrow=none;html=1;rounded=0;exitX=0.688;exitY=0;exitDx=0;exitDy=0;exitPerimeter=0;" edge="1" parent="1" source="FP0iiqA9R1l6mgRTC4EI-60">
          <mxGeometry width="50" height="50" relative="1" as="geometry">
            <mxPoint x="890" y="200" as="sourcePoint" />
            <mxPoint x="940" y="180" as="targetPoint" />
          </mxGeometry>
        </mxCell>
        <mxCell id="FP0iiqA9R1l6mgRTC4EI-77" value="" style="endArrow=none;html=1;rounded=0;" edge="1" parent="1">
          <mxGeometry width="50" height="50" relative="1" as="geometry">
            <mxPoint x="860" y="180" as="sourcePoint" />
            <mxPoint x="940" y="180" as="targetPoint" />
          </mxGeometry>
        </mxCell>
        <mxCell id="FP0iiqA9R1l6mgRTC4EI-78" value="" style="endArrow=classic;html=1;rounded=0;entryX=1.021;entryY=0.407;entryDx=0;entryDy=0;entryPerimeter=0;" edge="1" parent="1" target="FP0iiqA9R1l6mgRTC4EI-74">
          <mxGeometry width="50" height="50" relative="1" as="geometry">
            <mxPoint x="860" y="180" as="sourcePoint" />
            <mxPoint x="910" y="130" as="targetPoint" />
          </mxGeometry>
        </mxCell>
        <mxCell id="FP0iiqA9R1l6mgRTC4EI-79" value="" style="endArrow=none;html=1;rounded=0;" edge="1" parent="1">
          <mxGeometry width="50" height="50" relative="1" as="geometry">
            <mxPoint x="360" y="180" as="sourcePoint" />
            <mxPoint x="460" y="180" as="targetPoint" />
          </mxGeometry>
        </mxCell>
        <mxCell id="FP0iiqA9R1l6mgRTC4EI-80" value="" style="endArrow=classic;html=1;rounded=0;entryX=0.043;entryY=0.383;entryDx=0;entryDy=0;entryPerimeter=0;" edge="1" parent="1" target="FP0iiqA9R1l6mgRTC4EI-74">
          <mxGeometry width="50" height="50" relative="1" as="geometry">
            <mxPoint x="460" y="180" as="sourcePoint" />
            <mxPoint x="510" y="130" as="targetPoint" />
          </mxGeometry>
        </mxCell>
        <mxCell id="FP0iiqA9R1l6mgRTC4EI-81" value="" style="endArrow=none;html=1;rounded=0;" edge="1" parent="1">
          <mxGeometry width="50" height="50" relative="1" as="geometry">
            <mxPoint x="360" y="180" as="sourcePoint" />
            <mxPoint x="360" y="160" as="targetPoint" />
          </mxGeometry>
        </mxCell>
        <mxCell id="FP0iiqA9R1l6mgRTC4EI-82" value="" style="group" connectable="0" vertex="1" parent="1">
          <mxGeometry x="280.13" y="680" width="80" height="80" as="geometry" />
        </mxCell>
        <mxCell id="FP0iiqA9R1l6mgRTC4EI-83" value="Query Events" style="ellipse;whiteSpace=wrap;html=1;aspect=fixed;" vertex="1" parent="FP0iiqA9R1l6mgRTC4EI-82">
          <mxGeometry width="80" height="80" as="geometry" />
        </mxCell>
        <mxCell id="FP0iiqA9R1l6mgRTC4EI-84" value="" style="endArrow=none;html=1;rounded=0;exitX=0.109;exitY=0.185;exitDx=0;exitDy=0;exitPerimeter=0;entryX=0.894;entryY=0.188;entryDx=0;entryDy=0;entryPerimeter=0;" edge="1" parent="FP0iiqA9R1l6mgRTC4EI-82" source="FP0iiqA9R1l6mgRTC4EI-83" target="FP0iiqA9R1l6mgRTC4EI-83">
          <mxGeometry width="50" height="50" relative="1" as="geometry">
            <mxPoint x="10" y="15" as="sourcePoint" />
            <mxPoint x="70" y="15" as="targetPoint" />
          </mxGeometry>
        </mxCell>
        <mxCell id="FP0iiqA9R1l6mgRTC4EI-85" value="" style="endArrow=classic;html=1;rounded=0;" edge="1" parent="1">
          <mxGeometry width="50" height="50" relative="1" as="geometry">
            <mxPoint x="70" y="710" as="sourcePoint" />
            <mxPoint x="280.13" y="710" as="targetPoint" />
          </mxGeometry>
        </mxCell>
        <mxCell id="FP0iiqA9R1l6mgRTC4EI-86" value="" style="endArrow=classic;html=1;rounded=0;entryX=1;entryY=0.5;entryDx=0;entryDy=0;" edge="1" parent="1" target="FP0iiqA9R1l6mgRTC4EI-83">
          <mxGeometry width="50" height="50" relative="1" as="geometry">
            <mxPoint x="520" y="720" as="sourcePoint" />
            <mxPoint x="480.13" y="670.5" as="targetPoint" />
          </mxGeometry>
        </mxCell>
        <mxCell id="FP0iiqA9R1l6mgRTC4EI-87" value="" style="endArrow=none;html=1;rounded=0;entryX=0.5;entryY=1;entryDx=0;entryDy=0;" edge="1" parent="1" target="FP0iiqA9R1l6mgRTC4EI-2">
          <mxGeometry width="50" height="50" relative="1" as="geometry">
            <mxPoint x="70" y="710" as="sourcePoint" />
            <mxPoint x="105" y="380" as="targetPoint" />
          </mxGeometry>
        </mxCell>
        <mxCell id="FP0iiqA9R1l6mgRTC4EI-88" value="" style="endArrow=none;html=1;rounded=0;" edge="1" parent="1">
          <mxGeometry width="50" height="50" relative="1" as="geometry">
            <mxPoint x="520" y="720" as="sourcePoint" />
            <mxPoint x="520" y="620" as="targetPoint" />
          </mxGeometry>
        </mxCell>
        <mxCell id="FP0iiqA9R1l6mgRTC4EI-89" value="" style="endArrow=none;html=1;rounded=0;" edge="1" parent="1">
          <mxGeometry width="50" height="50" relative="1" as="geometry">
            <mxPoint x="250" y="690" as="sourcePoint" />
            <mxPoint x="250" y="620" as="targetPoint" />
          </mxGeometry>
        </mxCell>
        <mxCell id="FP0iiqA9R1l6mgRTC4EI-90" value="" style="endArrow=classic;html=1;rounded=0;entryX=0.428;entryY=0;entryDx=0;entryDy=0;entryPerimeter=0;" edge="1" parent="1">
          <mxGeometry width="50" height="50" relative="1" as="geometry">
            <mxPoint x="250" y="690" as="sourcePoint" />
            <mxPoint x="294.37" y="690" as="targetPoint" />
          </mxGeometry>
        </mxCell>
        <mxCell id="FP0iiqA9R1l6mgRTC4EI-91" value="Event List" style="text;html=1;align=center;verticalAlign=middle;whiteSpace=wrap;rounded=0;" vertex="1" parent="1">
          <mxGeometry x="240" y="640" width="90" height="30" as="geometry" />
        </mxCell>
        <mxCell id="FP0iiqA9R1l6mgRTC4EI-92" value="&lt;div&gt;Request for event lists&lt;/div&gt;&lt;div&gt;&lt;br&gt;&lt;/div&gt;" style="text;html=1;align=center;verticalAlign=middle;whiteSpace=wrap;rounded=0;" vertex="1" parent="1">
          <mxGeometry x="60" y="440" width="90" height="55" as="geometry" />
        </mxCell>
        <mxCell id="FP0iiqA9R1l6mgRTC4EI-93" value="&lt;div&gt;Request for event lists&lt;/div&gt;&lt;div&gt;&lt;br&gt;&lt;/div&gt;" style="text;html=1;align=center;verticalAlign=middle;whiteSpace=wrap;rounded=0;" vertex="1" parent="1">
          <mxGeometry x="497.5" y="720" width="90" height="55" as="geometry" />
        </mxCell>
        <mxCell id="FP0iiqA9R1l6mgRTC4EI-94" value="" style="endArrow=none;html=1;rounded=0;entryX=0.095;entryY=0.239;entryDx=0;entryDy=0;entryPerimeter=0;" edge="1" parent="1" target="FP0iiqA9R1l6mgRTC4EI-83">
          <mxGeometry width="50" height="50" relative="1" as="geometry">
            <mxPoint x="170" y="699" as="sourcePoint" />
            <mxPoint x="260" y="670" as="targetPoint" />
          </mxGeometry>
        </mxCell>
        <mxCell id="FP0iiqA9R1l6mgRTC4EI-95" value="" style="endArrow=classic;html=1;rounded=0;" edge="1" parent="1">
          <mxGeometry width="50" height="50" relative="1" as="geometry">
            <mxPoint x="170" y="701" as="sourcePoint" />
            <mxPoint x="170" y="620" as="targetPoint" />
          </mxGeometry>
        </mxCell>
        <mxCell id="FP0iiqA9R1l6mgRTC4EI-96" value="Event Query" style="text;html=1;align=center;verticalAlign=middle;whiteSpace=wrap;rounded=0;" vertex="1" parent="1">
          <mxGeometry x="170" y="640" width="60" height="30" as="geometry" />
        </mxCell>
        <mxCell id="FP0iiqA9R1l6mgRTC4EI-97" value="" style="endArrow=none;html=1;rounded=0;entryX=0;entryY=0.5;entryDx=0;entryDy=0;" edge="1" parent="1" target="FP0iiqA9R1l6mgRTC4EI-83">
          <mxGeometry width="50" height="50" relative="1" as="geometry">
            <mxPoint x="40" y="720" as="sourcePoint" />
            <mxPoint x="200" y="725" as="targetPoint" />
          </mxGeometry>
        </mxCell>
        <mxCell id="FP0iiqA9R1l6mgRTC4EI-98" value="" style="endArrow=classic;html=1;rounded=0;entryX=0.132;entryY=1.017;entryDx=0;entryDy=0;entryPerimeter=0;" edge="1" parent="1" target="FP0iiqA9R1l6mgRTC4EI-2">
          <mxGeometry width="50" height="50" relative="1" as="geometry">
            <mxPoint x="40" y="720" as="sourcePoint" />
            <mxPoint x="40" y="360" as="targetPoint" />
          </mxGeometry>
        </mxCell>
        <mxCell id="FP0iiqA9R1l6mgRTC4EI-99" value="" style="endArrow=none;html=1;rounded=0;exitX=0.981;exitY=0.372;exitDx=0;exitDy=0;exitPerimeter=0;" edge="1" parent="1" source="FP0iiqA9R1l6mgRTC4EI-83">
          <mxGeometry width="50" height="50" relative="1" as="geometry">
            <mxPoint x="360" y="710" as="sourcePoint" />
            <mxPoint x="510" y="710" as="targetPoint" />
          </mxGeometry>
        </mxCell>
        <mxCell id="FP0iiqA9R1l6mgRTC4EI-100" value="" style="endArrow=classic;html=1;rounded=0;entryX=0.299;entryY=1.004;entryDx=0;entryDy=0;entryPerimeter=0;" edge="1" parent="1" target="FP0iiqA9R1l6mgRTC4EI-5">
          <mxGeometry width="50" height="50" relative="1" as="geometry">
            <mxPoint x="510" y="710" as="sourcePoint" />
            <mxPoint x="510" y="650" as="targetPoint" />
          </mxGeometry>
        </mxCell>
        <mxCell id="FP0iiqA9R1l6mgRTC4EI-101" value="Event List" style="text;html=1;align=center;verticalAlign=middle;whiteSpace=wrap;rounded=0;" vertex="1" parent="1">
          <mxGeometry x="-40" y="395" width="90" height="30" as="geometry" />
        </mxCell>
        <mxCell id="FP0iiqA9R1l6mgRTC4EI-102" value="Event List" style="text;html=1;align=center;verticalAlign=middle;whiteSpace=wrap;rounded=0;" vertex="1" parent="1">
          <mxGeometry x="380" y="680" width="90" height="30" as="geometry" />
        </mxCell>
      </root>
    </mxGraphModel>
  </diagram>
</mxfile>
